<svg width="184" height="25" viewBox="0 0 184 25" fill="none" xmlns="http://www.w3.org/2000/svg">
<path d="M50.2539 7.33548C51.1362 5.24743 54.0709 5.13206 55.0829 7.16043C55.4816 7.95955 56.2686 8.50613 57.1554 8.61225C59.3798 8.87846 60.433 11.544 58.9398 13.2141L58.7097 13.4713C58.1179 14.1333 57.8688 15.0334 58.0361 15.9055L58.1219 16.3527C58.5354 18.5083 56.2759 20.1884 54.328 19.1766C53.5143 18.7539 52.5379 18.7873 51.7554 19.2654C49.8814 20.4105 47.5153 18.8779 47.7939 16.6995L47.8495 16.2649C47.9619 15.3863 47.6562 14.5058 47.0235 13.886L46.8067 13.6735C45.1975 12.0969 46.0726 9.35172 48.2848 8.92539C49.1588 8.75695 49.9075 8.15539 50.2539 7.33548Z" fill="#FFB400"/>
<path d="M80.5625 7.33548C81.4448 5.24743 84.3795 5.13206 85.3915 7.16043C85.7902 7.95955 86.5772 8.50613 87.4639 8.61225C89.6884 8.87846 90.7416 11.544 89.2484 13.2141L89.0183 13.4713C88.4265 14.1333 88.1774 15.0334 88.3447 15.9055L88.4305 16.3527C88.844 18.5083 86.5845 20.1884 84.6366 19.1766C83.8229 18.7539 82.8464 18.7873 82.064 19.2654C80.19 20.4105 77.8239 18.8779 78.1025 16.6995L78.1581 16.2649C78.2705 15.3863 77.9648 14.5058 77.3321 13.886L77.1153 13.6735C75.506 12.0969 76.3812 9.35172 78.5934 8.92539C79.4674 8.75695 80.2161 8.15539 80.5625 7.33548Z" fill="#FFB400"/>
<path d="M110.871 7.33548C111.753 5.24743 114.688 5.13206 115.7 7.16043C116.099 7.95955 116.886 8.50613 117.773 8.61225C119.997 8.87846 121.05 11.544 119.557 13.2141L119.327 13.4713C118.735 14.1333 118.486 15.0334 118.653 15.9055L118.739 16.3527C119.153 18.5083 116.893 20.1884 114.945 19.1766C114.132 18.7539 113.155 18.7873 112.373 19.2654C110.499 20.4105 108.132 18.8779 108.411 16.6995L108.467 16.2649C108.579 15.3863 108.273 14.5058 107.641 13.886L107.424 13.6735C105.815 12.0969 106.69 9.35172 108.902 8.92539C109.776 8.75695 110.525 8.15539 110.871 7.33548Z" fill="#FFB400"/>
<path d="M141.18 7.33548C142.062 5.24743 144.997 5.13206 146.009 7.16043C146.407 7.95955 147.194 8.50613 148.081 8.61225C150.306 8.87846 151.359 11.544 149.866 13.2141L149.636 13.4713C149.044 14.1333 148.795 15.0334 148.962 15.9055L149.048 16.3527C149.461 18.5083 147.202 20.1884 145.254 19.1766C144.44 18.7539 143.464 18.7873 142.681 19.2654C140.807 20.4105 138.441 18.8779 138.72 16.6995L138.775 16.2649C138.888 15.3863 138.582 14.5058 137.949 13.886L137.732 13.6735C136.123 12.0969 136.998 9.35172 139.211 8.92539C140.085 8.75695 140.833 8.15539 141.18 7.33548Z" fill="#FFB400"/>
<path d="M171.488 7.33548C172.371 5.24743 175.305 5.13206 176.317 7.16043C176.716 7.95955 177.503 8.50613 178.39 8.61225C180.614 8.87846 181.667 11.544 180.174 13.2141L179.944 13.4713C179.352 14.1333 179.103 15.0334 179.27 15.9055L179.356 16.3527C179.77 18.5083 177.51 20.1884 175.562 19.1766C174.749 18.7539 173.772 18.7873 172.99 19.2654C171.116 20.4105 168.75 18.8779 169.028 16.6995L169.084 16.2649C169.196 15.3863 168.891 14.5058 168.258 13.886L168.041 13.6735C166.432 12.0969 167.307 9.35172 169.519 8.92539C170.393 8.75695 171.142 8.15539 171.488 7.33548Z" fill="#FFB400"/>
<path d="M24 12.7841C24 11.2977 22.694 10.2273 21.2076 10.2273H14.6654C13.3286 10.2273 12.2449 11.3109 12.2449 12.6477C12.2449 13.9845 13.3286 15.0682 14.6654 15.0682H15.2362C17.1073 15.0682 18.5113 16.8914 17.1638 18.1896C16.9225 18.4222 16.659 18.6361 16.3748 18.8295C16.3748 20.568 17.7841 21.9773 19.5225 21.9773H20.3488C22.6642 19.7955 24 16.5909 24 12.7841Z" fill="#4285F4"/>
<path d="M12.2449 25C15.551 25 18.3228 23.8864 20.3488 21.9773L16.3748 18.8295C15.2839 19.5795 13.8924 20.0341 12.2449 20.0341C9.65093 20.0341 7.37473 18.5781 6.09666 16.4407C5.57257 15.5642 4.69722 14.8864 3.676 14.8864C2.37125 14.8864 1.31354 15.9441 1.31354 17.2488V17.5028C1.31354 17.9046 1.4021 18.3035 1.59728 18.6547C3.70017 22.4393 7.67294 25 12.2449 25Z" fill="#34A853"/>
<path d="M4.48609 15.5795C5.02729 15.1567 5.22802 14.4426 5.10949 13.7661C5.03735 13.3543 4.99814 12.9318 4.99814 12.5C4.99814 11.6705 5.14286 10.875 5.38775 10.125C5.38775 8.34263 3.94286 6.89773 2.16048 6.89773H1.31354C0.478664 8.57955 0 10.4773 0 12.5C0 13.0938 0.0412567 13.6769 0.120671 14.2469C0.408551 16.3131 2.85322 16.878 4.48609 15.5795Z" fill="#FBBC05"/>
<path d="M12.2449 4.97727C13.1825 4.97727 14.066 5.14931 14.8781 5.487C16.1435 6.01318 17.7033 6.05284 18.6623 5.07386C19.6387 4.07716 19.6219 2.44423 18.4338 1.71274C16.6675 0.625256 14.5939 0 12.2449 0C7.45826 0 3.32839 2.80682 1.31354 6.89773L5.38775 10.125C6.35622 7.17045 9.06122 4.97727 12.2449 4.97727Z" fill="#EA4335"/>
</svg>
