<svg width="32" height="32" viewBox="0 0 32 32" fill="none" xmlns="http://www.w3.org/2000/svg">
<path d="M8.59244 11.4733L11.0783 9.5028C11.6881 9.02191 11.8757 8.17742 11.5239 7.47368L8.72144 1.9024C8.26412 0.987532 7.09153 0.717765 6.27071 1.32767L3.43302 3.46236C1.05265 5.24517 0.313928 8.48238 1.68586 11.1331L2.23698 12.2122C6.12999 19.7422 12.2627 25.8765 19.7907 29.7706L20.8695 30.3218C23.5079 31.6824 26.7442 30.9435 28.5383 28.5742L30.6724 25.7358C31.2822 24.9147 31.0125 23.7418 30.0978 23.2844L24.528 20.4812C23.8362 20.1293 22.9802 20.317 22.4994 20.9269L20.5295 23.4134C15.1707 21.1145 10.9025 16.8334 8.59244 11.4733Z" stroke="#1700C2" stroke-width="2" stroke-linecap="round" stroke-linejoin="round"/>
</svg>
